<?xml version="1.0" encoding="utf-8"?>
<!-- Generator: Adobe Illustrator 26.0.1, SVG Export Plug-In . SVG Version: 6.00 Build 0)  -->
<svg version="1.1" id="Layer_1" xmlns="http://www.w3.org/2000/svg" xmlns:xlink="http://www.w3.org/1999/xlink" x="0px" y="0px"
	 viewBox="0 0 180 180" style="enable-background:new 0 0 180 180;" xml:space="preserve">
<style type="text/css">
	.st0{fill:none;stroke:#FFFFFF;stroke-width:2;stroke-miterlimit:10;}
	.st1{fill:none;stroke:#FFFFFF;stroke-width:2;stroke-linecap:round;stroke-linejoin:round;stroke-miterlimit:10;}
</style>
<circle id="Ellipse_17" class="st0" cx="90" cy="90" r="75"/>
<path class="st1" d="M58,41.3h-6.9"/>
<path class="st1" d="M124.9,138.6h5.6V90c5.8,0,10.4-4.7,10.4-10.4l0,0V51.8l0,0c0-5.8-4.7-10.4-10.4-10.4h-25.3"/>
<polyline class="st1" points="110.2,146.2 117.9,148 117.9,50.7 58.8,36.8 58.8,43.2 "/>
<g>
	<line class="st1" x1="131.4" y1="50.7" x2="131.4" y2="59.8"/>
	<line class="st1" x1="131.4" y1="65" x2="131.4" y2="81"/>
</g>
<path class="st1" d="M51.1,138.6l59.1,13.9V55.2L51.1,41.3V138.6z"/>
<polygon class="st1" points="96.6,94.8 86.9,92.6 86.9,81.9 76.6,79.5 76.6,90.1 66.8,87.9 66.8,97.9 76.6,100.1 76.6,110.8 
	86.9,113.2 86.9,102.6 96.6,104.8 "/>
<polyline class="st1" points="118,141.8 124.3,143.3 124.3,46 65.2,32.1 65.2,38 "/>
</svg>
