<?xml version="1.0" encoding="utf-8"?>
<!-- Generator: Adobe Illustrator 25.4.1, SVG Export Plug-In . SVG Version: 6.00 Build 0)  -->
<svg version="1.1" id="Layer_1" xmlns="http://www.w3.org/2000/svg" xmlns:xlink="http://www.w3.org/1999/xlink" x="0px" y="0px"
	 viewBox="0 0 200 200" style="enable-background:new 0 0 200 200;" xml:space="preserve">
<style type="text/css">
	.st0{fill:none;stroke:#FFFFFF;stroke-width:2;stroke-miterlimit:10;}
	.st1{fill:none;stroke:#FFFFFF;stroke-width:2;stroke-linecap:round;stroke-linejoin:round;}
	.st2{fill:none;stroke:#FFFFFF;stroke-width:1.25;stroke-linejoin:round;stroke-miterlimit:10;}
	.st3{fill:none;stroke:#FFFFFF;stroke-linejoin:round;stroke-miterlimit:10;}
	.st4{fill:#FFFFFF;}
</style>
<g>
	<circle class="st0" cx="100.6" cy="97.6" r="75"/>
	<g>
		<path class="st1" d="M51.1,93.2l14.2-3.8l7.4,12.7L80,89.4l14.2,3.8L90.4,79l12.7-7.4l-12.7-7.4L94.2,50L80,53.8l-7.4-12.7
			l-7.4,12.7L51.1,50l3.8,14.2l-12.7,7.4L54.9,79L51.1,93.2z M72.7,52.9c10.3,0,18.7,8.4,18.7,18.7c0,10.3-8.4,18.7-18.7,18.7
			C62.3,90.3,54,81.9,54,71.6C54,61.3,62.3,52.9,72.7,52.9z"/>
		<circle class="st1" cx="72.7" cy="71.6" r="18.7"/>
	</g>
	<path class="st1" d="M125.8,121.9c-3.8,9.9,1.2,21,11.1,24.8c2.7,1,5.5,1.4,8.2,1.2c-5.2,5-13,6.9-20.2,4.2
		c-9.9-3.8-14.9-14.9-11.1-24.8c2.7-7.2,9.3-11.8,16.6-12.3C128.4,116.8,126.8,119.2,125.8,121.9z"/>
	<g>
		<polygon class="st2" points="149.4,115.1 154.1,114.7 150.8,118.1 152.6,122.4 148.4,120.3 144.9,123.4 145.6,118.7 141.6,116.3 
			146.2,115.5 147.2,111 		"/>
		<polygon class="st3" points="138.5,125.9 141.1,125.7 139.3,127.6 140.3,130 137.9,128.8 135.9,130.6 136.3,127.9 134.1,126.6 
			136.7,126.1 137.3,123.6 		"/>
		<polygon class="st3" points="150.7,132.4 153.4,132.2 151.5,134.1 152.6,136.5 150.2,135.3 148.2,137.1 148.6,134.5 146.3,133.1 
			148.9,132.7 149.5,130.1 		"/>
	</g>
	<g>
		<g>
			<g>
				<path class="st0" d="M48.5,98.8c0.6,25.9,20,47.1,45.2,50.4"/>
				<g>
					<polygon class="st4" points="92.2,153 99.4,149.6 92.9,145 					"/>
				</g>
			</g>
		</g>
		<g>
			<g>
				<path class="st0" d="M152.7,96.4c-0.6-25.9-20-47.1-45.2-50.4"/>
				<g>
					<polygon class="st4" points="109,42.2 101.8,45.5 108.3,50.1 					"/>
				</g>
			</g>
		</g>
	</g>
</g>
</svg>
