<?xml version="1.0" encoding="utf-8"?>
<!-- Generator: Adobe Illustrator 25.4.1, SVG Export Plug-In . SVG Version: 6.00 Build 0)  -->
<svg version="1.1" id="Layer_1" xmlns="http://www.w3.org/2000/svg" xmlns:xlink="http://www.w3.org/1999/xlink" x="0px" y="0px"
	 viewBox="0 0 200 200" style="enable-background:new 0 0 200 200;" xml:space="preserve">
<style type="text/css">
	.st0{fill:none;stroke:#FFFFFF;stroke-width:2;stroke-miterlimit:10;}
</style>
<g>
	<circle class="st0" cx="100" cy="100" r="75"/>
	<path class="st0" d="M123.9,46.4c-26.1-11.7-56.7-2.9-72.8,20.9c-9,13.5-12,29.8-8.5,45.4l-9.4,5.3l31.7,19l0.6-36.9l-8.5,4.7
		c-1.2-10,1.2-20.2,6.9-28.9c11.7-17.7,34.4-24.1,53.7-15.4c3.5,1.5,7.5,0.3,9.6-2.7c0.3-0.3,0.4-0.8,0.6-1.1
		C129.6,52.7,127.9,48.1,123.9,46.4z"/>
	<path class="st0" d="M166.8,81.9L135.1,63l-0.6,36.9l8.5-4.7c1.1,10.1-1.3,20.3-7,28.9c-11.7,17.7-34.4,24.1-53.7,15.4
		c-3.9-1.7-8.5,0-10.2,3.9s0,8.5,3.9,10.2c26.2,11.7,56.8,2.9,72.8-21c9-13.5,12-29.8,8.5-45.4L166.8,81.9z"/>
</g>
</svg>
