<?xml version="1.0" encoding="utf-8"?>
<!-- Generator: Adobe Illustrator 26.0.1, SVG Export Plug-In . SVG Version: 6.00 Build 0)  -->
<svg version="1.1" id="Layer_1" xmlns="http://www.w3.org/2000/svg" xmlns:xlink="http://www.w3.org/1999/xlink" x="0px" y="0px"
	 viewBox="0 0 180 180" style="enable-background:new 0 0 180 180;" xml:space="preserve">
<style type="text/css">
	.st0{fill:none;stroke:#FFFFFF;stroke-miterlimit:10;}
</style>
<circle id="Ellipse_17" class="st0" cx="90" cy="90" r="75"/>
<g>
	<g>
		<path id="Phone_Shape_00000088820035147543138130000015605880075638046377_" class="st0" d="M54.2,146.8
			c-5.8-1.1-9.5-6.8-8.4-12.5l20-102.1c1.1-5.8,6.8-9.5,12.5-8.4l47.4,9.3c5.8,1.1,9.5,6.8,8.4,12.5l-20,102.1
			c-1.1,5.8-6.8,9.6-12.5,8.4L54.2,146.8z"/>
		<path id="Screen_Shape_00000039848871595992819020000004828709386522356914_" class="st0" d="M108.9,144c-0.6,3.2-3.8,5.3-7,4.7
			l-45.1-8.8c-3.2-0.6-5.3-3.8-4.7-7l19.1-97.5c0.6-3.2,3.8-5.3,7-4.7l5.8,1.1c0.6,0.1,1,0.7,0.9,1.4l-0.2,1.2
			c-0.1,0.6,0.3,1.2,0.9,1.3l28.9,5.7c0.6,0.1,1.2-0.3,1.3-0.9l0.2-1.2c0.1-0.6,0.7-1,1.4-0.9l5.8,1.1c3.2,0.6,5.3,3.8,4.7,7
			L108.9,144z"/>
		<line id="Line_00000015325414042707534010000004555047809631311550_" class="st0" x1="94.2" y1="32.8" x2="107.7" y2="35.5"/>
	</g>
	<g>
		<g id="Group_1049">
			<path id="Path_49436" class="st0" d="M71.1,84.6l6.1-0.4l2,5.8l4-4.6l5.5,2.7l-0.4-6.1l5.8-2l-4.6-4l2.7-5.5l-6.1,0.4L84,65
				l-4,4.6l-5.5-2.7L75,73l-5.8,2l4.6,4L71.1,84.6z M83.1,69.8c4.2,0.8,7,4.9,6.2,9.2c-0.8,4.2-4.9,7-9.2,6.2
				c-4.2-0.8-7-4.9-6.2-9.2l0,0C74.8,71.7,78.9,69,83.1,69.8z"/>
			<circle id="Ellipse_18" class="st0" cx="81.6" cy="77.5" r="7.8"/>
		</g>
		<path id="Path_49437" class="st0" d="M99.3,102.3c-2.3,3.8-1.2,8.7,2.6,11c1,0.6,2.1,1,3.3,1.1c-3.7,2.4-8.7,1.4-11.1-2.3
			c-1.7-2.6-1.7-6-0.1-8.6c1.6-2.7,4.7-4.1,7.8-3.7C100.8,100.5,99.9,101.3,99.3,102.3z"/>
		<g id="Group_1050">
			<path id="Path_49438" class="st0" d="M109.5,101.4l2,0.2l-1.6,1.1l0.4,1.9l-1.6-1.2l-1.7,1l0.7-1.9l-1.4-1.3l1.9,0l0.8-1.8
				L109.5,101.4z"/>
			<path id="Path_49439" class="st0" d="M104.2,105l1.1,0.1l-0.9,0.6l0.2,1.1l-0.9-0.7l-1,0.6l0.4-1.1l-0.8-0.7l1.1,0l0.4-1
				L104.2,105z"/>
			<path id="Path_49440" class="st0" d="M108.7,108.6l1.1,0.1l-0.9,0.6l0.3,1.1l-0.9-0.7l-1,0.6l0.4-1l-0.8-0.8l1.1,0l0.5-1
				L108.7,108.6z"/>
		</g>
		<g id="Group_1057">
			<g id="Group_1053">
				<g id="Group_1052">
					<path id="Path_49441" class="st0" d="M69.6,86.7c-1.8,10.5,4.3,20.8,14.5,24.2"/>
					<g id="Group_1051">
						<path id="Path_49442" class="st0" d="M83.1,112.3l3.2-0.8l-2.3-2.4L83.1,112.3z"/>
					</g>
				</g>
			</g>
			<g id="Group_1056">
				<g id="Group_1055">
					<path id="Path_49443" class="st0" d="M112.4,94c1.8-10.5-4.3-20.8-14.5-24.2"/>
					<g id="Group_1054">
						<path id="Path_49444" class="st0" d="M98.9,68.4l-3.2,0.8l2.3,2.4L98.9,68.4z"/>
					</g>
				</g>
			</g>
		</g>
	</g>
</g>
</svg>
