<?xml version="1.0" encoding="utf-8"?>
<!-- Generator: Adobe Illustrator 25.4.1, SVG Export Plug-In . SVG Version: 6.00 Build 0)  -->
<svg version="1.1" id="Layer_1" xmlns="http://www.w3.org/2000/svg" xmlns:xlink="http://www.w3.org/1999/xlink" x="0px" y="0px"
	 viewBox="0 0 200 200" style="enable-background:new 0 0 200 200;" xml:space="preserve">
<style type="text/css">
	.st0{fill:none;stroke:#FFFFFF;stroke-width:2;stroke-miterlimit:10;}
	.st1{fill:none;stroke:#FFFFFF;stroke-width:1.75;stroke-linecap:round;stroke-linejoin:round;}
</style>
<circle class="st0" cx="100" cy="100" r="75"/>
<line id="Line_50" class="st1" x1="145.9" y1="134.8" x2="54" y2="134.8"/>
<rect id="Rectangle_778" x="123.9" y="85.8" class="st1" width="9.4" height="9.4"/>
<rect id="Rectangle_779" x="123.9" y="103.1" class="st1" width="9.4" height="9.4"/>
<rect id="Rectangle_783" x="123.9" y="120.6" class="st1" width="9.4" height="9.4"/>
<rect id="Rectangle_777" x="104.9" y="85.8" class="st1" width="9.4" height="9.4"/>
<rect id="Rectangle_782" x="104.9" y="103.1" class="st1" width="9.4" height="9.4"/>
<rect id="Rectangle_784" x="104.9" y="120.6" class="st1" width="9.4" height="9.4"/>
<rect id="Rectangle_775" x="66.6" y="85.8" class="st1" width="9.4" height="9.4"/>
<rect id="Rectangle_780" x="66.6" y="103.1" class="st1" width="9.4" height="9.4"/>
<rect id="Rectangle_785" x="66.6" y="120.6" class="st1" width="9.4" height="9.4"/>
<rect id="Rectangle_776" x="85.7" y="85.8" class="st1" width="9.4" height="9.4"/>
<rect id="Rectangle_781" x="85.7" y="103.1" class="st1" width="9.4" height="9.4"/>
<rect id="Rectangle_786" x="85.7" y="120.6" class="st1" width="9.4" height="9.4"/>
<path class="st1" d="M85.8,66.6c-1.8,0-3.2,0-3.2,0v6.3h12.6v-6.3c0,0-1.4,0-3.2,0"/>
<polyline class="st1" points="63.5,66.6 60.3,66.6 60.3,72.9 72.9,72.9 72.9,66.6 69.7,66.6 "/>
<path class="st1" d="M107.9,66.6c-1.7,0-3,0-3,0v6.3h12.6v-6.3c0,0-1.5,0-3.4,0"/>
<polyline class="st1" points="130.2,66.6 127,66.6 127,72.9 139.6,72.9 139.6,66.6 136.4,66.6 "/>
<path id="Path_997" class="st1" d="M54,79.4h91.9"/>
<path class="st1" d="M63.5,62h-7.1c-1.3,0-2.4,1.1-2.4,2.4v75.8c0,1.3,1.1,2.4,2.4,2.4h87.1c1.3,0,2.4-1.1,2.4-2.4v0.1h0.1V64.4
	c0-1.3-1.1-2.4-2.4-2.4h-7.2"/>
<line class="st1" x1="85.8" y1="62" x2="69.7" y2="62"/>
<line class="st1" x1="107.9" y1="62" x2="92" y2="62"/>
<line class="st1" x1="130.2" y1="62" x2="114.1" y2="62"/>
<path id="Path_1000" class="st1" d="M85.8,68.4v-9.5c0-0.8,0.7-1.5,1.5-1.5l0,0h3.2c0.8,0,1.5,0.7,1.5,1.5v9.5H85.8z"/>
<path id="Path_1000_00000077293682618000747980000002617965866455270025_" class="st1" d="M63.5,68.4v-9.5c0-0.8,0.7-1.5,1.5-1.5
	l0,0h3.2c0.8,0,1.5,0.7,1.5,1.5v9.5H63.5z"/>
<path id="Path_1001" class="st1" d="M107.9,68.4v-9.5c0-0.8,0.7-1.5,1.5-1.5l0,0h3.2c0.8,0,1.5,0.7,1.5,1.5v9.5H107.9z"/>
<path id="Path_998" class="st1" d="M130.2,68.4v-9.5c0-0.8,0.7-1.5,1.5-1.5h3.2c0.8,0,1.5,0.7,1.5,1.5v9.5H130.2z"/>
</svg>
