<?xml version="1.0" encoding="utf-8"?>
<!-- Generator: Adobe Illustrator 26.0.1, SVG Export Plug-In . SVG Version: 6.00 Build 0)  -->
<svg version="1.1" id="Layer_1" xmlns="http://www.w3.org/2000/svg" xmlns:xlink="http://www.w3.org/1999/xlink" x="0px" y="0px"
	 viewBox="0 0 180 180" style="enable-background:new 0 0 180 180;" xml:space="preserve">
<style type="text/css">
	.st0{fill:none;stroke:#FFFFFF;stroke-width:2;stroke-miterlimit:10;}
	.st1{fill:none;stroke:#FFFFFF;stroke-width:2;stroke-linecap:round;stroke-linejoin:round;stroke-miterlimit:10;}
</style>
<g>
	<path class="st0" d="M31.9,72c-4.2,1.1-6.7,5.4-5.6,9.5l9.5,33.3c1.2,3.5,4.9,5.5,8.5,4.6s5.8-4.5,5.1-8.1
		c-2.7-11.2-5.4-22.5-8-33.7C40.3,73.4,36.1,70.9,31.9,72z"/>
	<path class="st0" d="M88.1,165l-10.3-39c-1.1-4-5.2-6.4-9.2-5.4c-4,1.1-6.4,5.2-5.4,9.2l3.2,12.1c1.1,4-1.4,8.2-5.4,9.2
		s-8.2-1.4-9.2-5.4l-7-26.6"/>
	<path class="st0" d="M26.3,78.6c1.7,0.1,4.1,0.1,6.9-0.6c3.2-0.8,5.6-2.1,7-3.1"/>
</g>
<circle id="Ellipse_17" class="st0" cx="90" cy="90" r="75"/>
<g>
	<path id="Base" class="st1" d="M117.9,126.3H84.3c0,0,0-0.8,0-1.7c0-1,0.9-1.7,2-1.7H116c1.1,0,2,0.8,2,1.7
		S117.9,126.3,117.9,126.3z"/>
	<line id="L_Support" class="st0" x1="93.5" y1="122.9" x2="94.8" y2="113.5"/>
	<line id="R_Support" class="st0" x1="108.8" y1="122.9" x2="107.4" y2="113.5"/>
	<path id="Monitor_1_" class="st1" d="M142.8,52.9c1.8,0,3.3,1.5,3.3,3.3v53.9c0,1.8-1.5,3.3-3.3,3.3H59.3c-1.8,0-3.3-1.5-3.3-3.3
		V56.2c0-1.8,1.5-3.3,3.3-3.3H142.8z"/>
	<path id="Screen" class="st1" d="M59.8,58.1c0-0.8,0.6-1.3,1.3-1.3H141c0.8,0,1.3,0.6,1.3,1.3V107c0,0.8-0.6,1.3-1.3,1.3H61.2
		c-0.8,0-1.3-0.6-1.3-1.3V58.1H59.8z"/>
</g>
<g>
	<path class="st1" d="M103.2,102.1c14,0,26.6-5.7,35.7-14.8l-26.8-26.8c-2.3,2.3-5.5,3.7-9,3.7s-6.7-1.4-9-3.7L67.5,87.3
		C76.6,96.4,89.2,102.1,103.2,102.1z"/>
	<g>
		<path class="st1" d="M103.2,102.1c14,0,26.6-5.7,35.7-14.8"/>
		<path class="st1" d="M72.9,81.9c7.8,7.8,18.5,12.6,30.3,12.6"/>
		<path class="st1" d="M103.2,87.7c10,0,19-4,25.6-10.6"/>
		<path class="st1" d="M83,71.8c5.2,5.2,12.3,8.4,20.2,8.4"/>
		<path class="st1" d="M103.2,71.9c5.6,0,10.7-2.3,14.4-6"/>
		<path class="st1" d="M94.2,60.5c2.3,2.3,5.5,3.7,9,3.7"/>
	</g>
</g>
</svg>
