<?xml version="1.0" encoding="utf-8"?>
<!-- Generator: Adobe Illustrator 26.0.1, SVG Export Plug-In . SVG Version: 6.00 Build 0)  -->
<svg version="1.1" id="Layer_1" xmlns="http://www.w3.org/2000/svg" xmlns:xlink="http://www.w3.org/1999/xlink" x="0px" y="0px"
	 viewBox="0 0 180 180" style="enable-background:new 0 0 180 180;" xml:space="preserve">
<style type="text/css">
	.st0{fill:none;stroke:#FFFFFF;stroke-width:2;stroke-linecap:round;stroke-linejoin:round;stroke-miterlimit:10;}
	.st1{fill:none;stroke:#FFFFFF;stroke-width:2;stroke-linecap:round;stroke-linejoin:round;stroke-miterlimit:9.9998;}
	.st2{fill:none;stroke:#FFFFFF;stroke-width:2;stroke-miterlimit:10;}
	.st3{fill:none;stroke:#FFFFFF;stroke-width:1;stroke-miterlimit:9.9998;}
</style>
<path class="st0" d="M105.6,98.6c0,0,0.5-0.5,0.9-0.9s1.6-2.9,1.6-2.9l6.2-12.3c0.7-1.6,0.3-3.8-0.9-5L108,72l0,0l-5.5-5.5
	c-1.2-1.2-3.5-1.6-5-0.9l-12.3,6.2c0,0-2.4,1.2-2.9,1.6c-0.4,0.4-0.9,0.9-0.9,0.9"/>
<rect x="102" y="50.6" transform="matrix(0.7071 -0.7071 0.7071 0.7071 -4.8337 103.4389)" class="st1" width="40.9" height="13.9"/>
<path class="st2" d="M42.5,130.1c-2.1,2.1-2.1,5.4,0,7.5s5.4,2.1,7.5,0l17.1-17.1c2.1-2.1,2.1-5.4,0-7.5s-5.4-2.1-7.5,0L42.5,130.1z
	"/>
<rect x="52.6" y="121.7" transform="matrix(0.7071 -0.7071 0.7071 0.7071 -74.1942 74.8159)" class="st3" width="1.2" height="10.6"/>
<rect x="55.9" y="118.3" transform="matrix(0.7071 -0.7071 0.7071 0.7071 -70.8548 76.1321)" class="st3" width="1.2" height="10.6"/>
<path class="st2" d="M49.1,152.8c3.5-3.7,7.9-8.2,13.5-13.8c20.8-20.8,28.2-26.4,28.2-26.4c2.7-2,5.1-4.2,7.3-6.4l7.4-7.4L81.2,74.5
	c0,0-6.6,6.6-7.4,7.4c-2.2,2.2-4.4,4.6-6.4,7.3c0,0-5.6,7.4-26.4,28.2c-5.6,5.6-10.2,10-13.8,13.5"/>
<circle id="Ellipse_17" class="st2" cx="90" cy="90" r="75"/>
</svg>
