<?xml version="1.0" encoding="utf-8"?>
<!-- Generator: Adobe Illustrator 25.4.1, SVG Export Plug-In . SVG Version: 6.00 Build 0)  -->
<svg version="1.1" id="Wordmark" xmlns="http://www.w3.org/2000/svg" xmlns:xlink="http://www.w3.org/1999/xlink" x="0px" y="0px"
	 viewBox="0 0 102.9 32" style="enable-background:new 0 0 102.9 32;" xml:space="preserve">
<style type="text/css">
	.st0{fill:#2F4A73;}
</style>
<rect id="Rectangle_2226" x="6.6" class="st0" width="13.2" height="2.8"/>
<path id="Path_445" class="st0" d="M66.7,18.1h-9.2V8.6h9.2c3.3,0,5.5,1.9,5.5,4.7S70,18.1,66.7,18.1 M69.8,20.3
	c3.1-0.8,5.3-3.7,5.2-6.9c0-4.3-3.3-7.2-8.2-7.2h-12v25.4h2.8v-11h9.4l6,11h3l-6.2-11.2L69.8,20.3z"/>
<path id="Path_446" class="st0" d="M40.4,32c6.8,0,11.5-4.8,11.5-11.6V6.2h-2.8v14.1c0,5.3-3.6,8.9-8.7,8.9
	c-4.7,0.2-8.6-3.5-8.8-8.2c0-0.3,0-0.5,0-0.8V6.2h-2.8v14.3C28.8,27.2,33.6,32,40.4,32"/>
<path id="Path_447" class="st0" d="M90,9.5l6,13.1h-12L90,9.5z M88.6,6.2L77,31.5h3l2.9-6.5H97l2.9,6.5h3L91.3,6.2H88.6z"/>
<path id="Path_448" class="st0" d="M13.2,5.7C5.9,5.7,0,11.6,0,18.8S5.9,32,13.2,32s13.2-5.9,13.2-13.2S20.4,5.7,13.2,5.7L13.2,5.7z
	 M13.2,29.2c-5.7,0-10.3-4.6-10.3-10.3S7.5,8.5,13.2,8.5c5.7,0,10.3,4.6,10.3,10.3C23.5,24.5,18.9,29.2,13.2,29.2
	C13.2,29.2,13.2,29.2,13.2,29.2z"/>
</svg>
